<svg width="20" height="20" viewBox="0 0 20 20" fill="none" xmlns="http://www.w3.org/2000/svg">
<path d="M10 10C12.7614 10 15 7.76142 15 5C15 2.23858 12.7614 0 10 0C7.23858 0 5 2.23858 5 5C5 7.76142 7.23858 10 10 10Z" fill="#737474"/>
<path d="M11 10H9C6.61305 10 4.32387 10.9482 2.63604 12.636C0.948211 14.3239 0 16.6131 0 19C0 19.2652 0.105357 19.5196 0.292893 19.7071C0.48043 19.8946 0.734784 20 1 20H19C19.2652 20 19.5196 19.8946 19.7071 19.7071C19.8946 19.5196 20 19.2652 20 19C20 16.6131 19.0518 14.3239 17.364 12.636C15.6761 10.9482 13.3869 10 11 10Z" fill="#737474"/>
</svg>
